<svg xmlns="http://www.w3.org/2000/svg" width="16" height="16" viewBox="0 0 16 16">
<g fill="none" fill-rule="evenodd">
<path style="fill:#F1502F" d="M 5.648438 0.113281 C 5.574219 0.148438 5.246094 0.445312 4.921875 0.769531 L 4.335938 1.359375 L 5.03125 2.054688 L 5.722656 2.75 L 5.972656 2.726562 C 6.515625 2.6875 6.914062 3.089844 6.882812 3.660156 L 6.867188 3.9375 L 8.128906 5.199219 L 8.410156 5.199219 C 8.570312 5.195312 8.75 5.210938 8.816406 5.242188 C 9.507812 5.511719 9.554688 6.519531 8.898438 6.839844 C 8.234375 7.15625 7.476562 6.582031 7.640625 5.882812 L 7.683594 5.695312 L 7.054688 5.0625 L 6.421875 4.429688 L 6.421875 7.738281 L 6.589844 7.882812 C 6.84375 8.109375 6.90625 8.265625 6.882812 8.628906 L 6.859375 8.945312 L 8.109375 10.195312 L 9.964844 8.34375 C 11.007812 7.308594 11.851562 6.425781 11.886719 6.34375 C 11.980469 6.132812 11.96875 5.839844 11.863281 5.632812 C 11.75 5.417969 6.546875 0.226562 6.34375 0.121094 C 6.160156 0.03125 5.839844 0.03125 5.648438 0.113281 Z M 5.648438 0.113281 "/>
<path style="fill:#D1D1D1" d="M 1.984375 3.710938 C 0.96875 4.726562 0.121094 5.617188 0.09375 5.6875 C 0.0234375 5.878906 0.0390625 6.167969 0.121094 6.34375 C 0.226562 6.546875 5.417969 11.75 5.632812 11.863281 C 5.828125 11.960938 6.109375 11.980469 6.3125 11.90625 C 6.382812 11.878906 6.710938 11.585938 7.046875 11.257812 L 7.640625 10.664062 L 7 10.015625 L 6.351562 9.375 L 6.15625 9.402344 C 5.90625 9.441406 5.664062 9.359375 5.453125 9.171875 C 5.046875 8.820312 5.054688 8.242188 5.457031 7.882812 C 5.550781 7.804688 5.648438 7.734375 5.671875 7.734375 C 5.699219 7.734375 5.71875 7.105469 5.71875 6.070312 C 5.71875 5.15625 5.703125 4.40625 5.679688 4.40625 C 5.664062 4.40625 5.359375 4.695312 5 5.054688 L 4.355469 5.699219 L 4.398438 5.886719 C 4.460938 6.1875 4.378906 6.449219 4.148438 6.679688 C 3.601562 7.226562 2.671875 6.851562 2.671875 6.078125 C 2.671875 5.554688 3.070312 5.179688 3.589844 5.210938 L 3.84375 5.226562 L 4.503906 4.566406 L 5.160156 3.90625 L 5.175781 3.558594 L 5.183594 3.210938 L 4.527344 2.539062 C 4.164062 2.175781 3.859375 1.875 3.84375 1.875 C 3.828125 1.875 2.996094 2.703125 1.984375 3.710938 Z M 1.984375 3.710938 "/>
<path fill="#3592C4" d="M15.6671151,11.7975717 L15.8540408,15.3643272 L14.5314405,14.1725588 C13.7900433,15.0129565 12.7050642,15.5430432 11.4962775,15.5430432 C9.50080187,15.5430432 7.842723,14.0984672 7.51074663,12.1980269 L8.87615993,12.2449578 C9.20417965,13.3860496 10.2557866,14.2208939 11.5023824,14.2208939 C12.319856,14.2208939 13.053479,13.8618879 13.5541884,13.2929387 L12.100285,11.9845013 L15.6671151,11.7975717 Z M11.4962775,7.45090202 C13.465226,7.45090202 15.1056885,8.8573258 15.4678681,10.7203707 L14.1109661,10.6735064 C13.7642059,9.56267007 12.7274504,8.75641118 11.5023824,8.75641118 C10.6489016,8.75641118 9.88682079,9.1477398 9.38578063,9.76075689 L10.8923707,11.1172416 L7.32554064,11.3041713 L7.1386149,7.73741573 L8.40878629,8.88189078 C9.15095746,8.00651073 10.2587332,7.45090202 11.4962775,7.45090202 Z" transform="rotate(3 11.496 11.497)"/>
</g>
</svg>
