<?xml version="1.0" encoding="UTF-8" standalone="no"?>
<svg
   xmlns:dc="http://purl.org/dc/elements/1.1/"
   xmlns:cc="http://creativecommons.org/ns#"
   xmlns:rdf="http://www.w3.org/1999/02/22-rdf-syntax-ns#"
   xmlns:svg="http://www.w3.org/2000/svg"
   xmlns="http://www.w3.org/2000/svg"
   xmlns:sodipodi="http://sodipodi.sourceforge.net/DTD/sodipodi-0.dtd"
   xmlns:inkscape="http://www.inkscape.org/namespaces/inkscape"
   id="svg7"
   version="1.1"
   viewBox="0 0 16 16"
   height="16"
   width="16"
   sodipodi:docname="discover_dark.svg"
   inkscape:version="0.92.5 (2060ec1f9f, 2020-04-08)">
  <sodipodi:namedview
     pagecolor="#ffffff"
     bordercolor="#666666"
     borderopacity="1"
     objecttolerance="10"
     gridtolerance="10"
     guidetolerance="10"
     inkscape:pageopacity="0"
     inkscape:pageshadow="2"
     inkscape:window-width="1920"
     inkscape:window-height="1043"
     id="namedview10"
     showgrid="false"
     inkscape:zoom="14.75"
     inkscape:cx="8"
     inkscape:cy="8"
     inkscape:window-x="1920"
     inkscape:window-y="0"
     inkscape:window-maximized="1"
     inkscape:current-layer="svg7" />
  <metadata
     id="metadata13">
    <rdf:RDF>
      <cc:Work
         rdf:about="">
        <dc:format>image/svg+xml</dc:format>
        <dc:type
           rdf:resource="http://purl.org/dc/dcmitype/StillImage" />
        <dc:title />
      </cc:Work>
    </rdf:RDF>
  </metadata>
  <defs
     id="defs11" />
  <g
     id="surface1-3"
     transform="matrix(0.75616008,0,0,0.75616008,-0.02641253,-0.0061883)">
    <path
       id="path2-6"
       d="M 7.53125,0.148438 C 7.429688,0.199219 6.992188,0.59375 6.5625,1.023438 L 5.78125,1.8125 6.707031,2.738281 7.632812,3.667969 7.960938,3.636719 C 8.6875,3.582031 9.21875,4.117188 9.175781,4.882812 L 9.15625,5.25 10.835938,6.929688 h 0.375 c 0.214843,-0.00391 0.457031,0.019531 0.546874,0.058593 0.917969,0.363281 0.980469,1.707031 0.105469,2.128907 C 10.980469,9.542969 9.96875,8.773438 10.1875,7.84375 l 0.05469,-0.25 L 9.40625,6.75 8.5625,5.90625 v 4.414062 l 0.226562,0.191407 C 9.125,10.8125 9.207031,11.019531 9.175781,11.507812 L 9.144531,11.925781 10.8125,13.59375 13.289062,11.125 c 1.386719,-1.382812 2.511719,-2.554688 2.5625,-2.667969 0.125,-0.28125 0.105469,-0.667969 -0.03125,-0.945312 C 15.667969,7.226562 8.730469,0.300781 8.457031,0.164062 8.210938,0.0429688 7.789062,0.0390625 7.53125,0.148438 Z m 0,0"
       style="fill:#f1502f;fill-opacity:0.8" />
    <path
       id="path4-7"
       d="M 2.644531,4.949219 C 1.292969,6.300781 0.164062,7.488281 0.125,7.582031 c -0.09375,0.253907 -0.0742188,0.644531 0.039062,0.875 0.136719,0.273438 7.0625,7.210938 7.347657,7.363281 0.257812,0.128907 0.632812,0.15625 0.90625,0.05469 0.09375,-0.03906 0.53125,-0.425781 0.976562,-0.863281 L 10.1875,14.21875 9.332031,13.355469 8.46875,12.5 8.207031,12.539062 C 7.875,12.585938 7.550781,12.480469 7.269531,12.230469 6.730469,11.761719 6.738281,10.988281 7.273438,10.511719 7.398438,10.40625 7.53125,10.3125 7.5625,10.3125 7.601562,10.3125 7.625,9.476562 7.625,8.09375 7.625,6.875 7.605469,5.875 7.574219,5.875 c -0.023438,0 -0.429688,0.386719 -0.90625,0.863281 l -0.863281,0.863281 0.058593,0.25 C 5.949219,8.25 5.835938,8.601562 5.53125,8.90625 4.800781,9.636719 3.5625,9.136719 3.5625,8.105469 3.5625,7.40625 4.09375,6.90625 4.789062,6.949219 L 5.125,6.96875 6.007812,6.085938 6.882812,5.207031 6.898438,4.742188 6.914062,4.28125 6.039062,3.386719 C 5.550781,2.898438 5.144531,2.5 5.125,2.5 5.105469,2.5 3.992188,3.605469 2.644531,4.949219 Z m 0,0"
       style="fill:#d1d1d1;fill-opacity:0.8" />
  </g>
  <g
     style="fill:#8f9194;fill-opacity:1"
     id="layer1"
     transform="matrix(0.04795772,0,0,0.04795772,-10.180184,-12.368686)">
    <path
       id="path3058-6"
       style="color:#000000;text-indent:0;text-transform:none;fill:#8f9194;fill-opacity:1"
       d="m 393.36,334.66 c -26.422,0 -52.849,10.027 -72.935,30.113 -40.172,40.171 -40.218,105.74 -0.046,145.91 35.217,35.216 89.911,39.558 129.94,13.03 l 60.918,60.916 c 8.0386,8.0384 20.97,8.0384 29.008,0 8.0387,-8.0384 8.0387,-20.969 0,-29.008 L 479.373,494.705 C 505.87,454.682 501.5,399.973 466.296,364.765 446.21,344.68 419.782,334.652 393.361,334.652 Z m -0.046,27.166 c 19.371,0.009 38.738,7.4275 53.596,22.285 29.716,29.715 29.762,77.521 0.046,107.24 -29.716,29.715 -77.523,29.715 -107.24,0 -29.716,-29.715 -29.716,-77.52 0,-107.24 14.858,-14.858 34.225,-22.295 53.596,-22.285 z m -54.656,99.224 a 2.9472,2.9471 0 0 0 -2.5325,4.236 c 10.265,21.49 32.226,36.328 57.602,36.328 5.5064,0 10.842,-0.71645 15.932,-2.0259 a 2.9472,2.9471 0 0 0 -0.0921,-5.7094 c -25.496,-5.6948 -48.907,-16.882 -68.975,-32.231 a 2.9472,2.9471 0 0 0 -1.9339,-0.59857 z" />
  </g>
</svg>
