<?xml version="1.0" encoding="UTF-8"?>
<svg xmlns="http://www.w3.org/2000/svg" width="16" height="16" viewBox="0 0 16 16" version="1.1">
<g id="surface1">
<path fill-opacity=".8" style="fill:#F1502F" d="M 7.53125 0.148438 C 7.429688 0.199219 6.992188 0.59375 6.5625 1.023438 L 5.78125 1.8125 L 6.707031 2.738281 L 7.632812 3.667969 L 7.960938 3.636719 C 8.6875 3.582031 9.21875 4.117188 9.175781 4.882812 L 9.15625 5.25 L 10.835938 6.929688 L 11.210938 6.929688 C 11.425781 6.925781 11.667969 6.949219 11.757812 6.988281 C 12.675781 7.351562 12.738281 8.695312 11.863281 9.117188 C 10.980469 9.542969 9.96875 8.773438 10.1875 7.84375 L 10.242188 7.59375 L 9.40625 6.75 L 8.5625 5.90625 L 8.5625 10.320312 L 8.789062 10.511719 C 9.125 10.8125 9.207031 11.019531 9.175781 11.507812 L 9.144531 11.925781 L 10.8125 13.59375 L 13.289062 11.125 C 14.675781 9.742188 15.800781 8.570312 15.851562 8.457031 C 15.976562 8.175781 15.957031 7.789062 15.820312 7.511719 C 15.667969 7.226562 8.730469 0.300781 8.457031 0.164062 C 8.210938 0.0429688 7.789062 0.0390625 7.53125 0.148438 Z M 7.53125 0.148438 "/>
<path fill-opacity=".8" style="fill:#3E2C00" d="M 2.644531 4.949219 C 1.292969 6.300781 0.164062 7.488281 0.125 7.582031 C 0.03125 7.835938 0.0507812 8.226562 0.164062 8.457031 C 0.300781 8.730469 7.226562 15.667969 7.511719 15.820312 C 7.769531 15.949219 8.144531 15.976562 8.417969 15.875 C 8.511719 15.835938 8.949219 15.449219 9.394531 15.011719 L 10.1875 14.21875 L 9.332031 13.355469 L 8.46875 12.5 L 8.207031 12.539062 C 7.875 12.585938 7.550781 12.480469 7.269531 12.230469 C 6.730469 11.761719 6.738281 10.988281 7.273438 10.511719 C 7.398438 10.40625 7.53125 10.3125 7.5625 10.3125 C 7.601562 10.3125 7.625 9.476562 7.625 8.09375 C 7.625 6.875 7.605469 5.875 7.574219 5.875 C 7.550781 5.875 7.144531 6.261719 6.667969 6.738281 L 5.804688 7.601562 L 5.863281 7.851562 C 5.949219 8.25 5.835938 8.601562 5.53125 8.90625 C 4.800781 9.636719 3.5625 9.136719 3.5625 8.105469 C 3.5625 7.40625 4.09375 6.90625 4.789062 6.949219 L 5.125 6.96875 L 6.007812 6.085938 L 6.882812 5.207031 L 6.898438 4.742188 L 6.914062 4.28125 L 6.039062 3.386719 C 5.550781 2.898438 5.144531 2.5 5.125 2.5 C 5.105469 2.5 3.992188 3.605469 2.644531 4.949219 Z M 2.644531 4.949219 "/>
</g>
</svg>
