<?xml version="1.0" encoding="UTF-8" standalone="no"?>
<svg
   xmlns:dc="http://purl.org/dc/elements/1.1/"
   xmlns:cc="http://creativecommons.org/ns#"
   xmlns:rdf="http://www.w3.org/1999/02/22-rdf-syntax-ns#"
   xmlns:svg="http://www.w3.org/2000/svg"
   xmlns="http://www.w3.org/2000/svg"
   xmlns:sodipodi="http://sodipodi.sourceforge.net/DTD/sodipodi-0.dtd"
   xmlns:inkscape="http://www.inkscape.org/namespaces/inkscape"
   id="svg10"
   version="1.1"
   preserveAspectRatio="xMidYMid meet"
   viewBox="0 0 1446.6954 253.8699"
   height="253.8699pt"
   width="1446.6954pt"
   sodipodi:docname="logo.svg"
   inkscape:version="0.92.5 (2060ec1f9f, 2020-04-08)">
  <sodipodi:namedview
     pagecolor="#ffffff"
     bordercolor="#666666"
     borderopacity="1"
     objecttolerance="10"
     gridtolerance="10"
     guidetolerance="10"
     inkscape:pageopacity="0"
     inkscape:pageshadow="2"
     inkscape:window-width="1920"
     inkscape:window-height="1043"
     id="namedview18"
     showgrid="false"
     inkscape:zoom="0.347"
     inkscape:cx="1149.8513"
     inkscape:cy="112.95308"
     inkscape:window-x="1920"
     inkscape:window-y="0"
     inkscape:window-maximized="1"
     inkscape:current-layer="svg10" />
  <defs
     id="defs14" />
  <metadata
     id="metadata2">
Created by potrace 1.15, written by Peter Selinger 2001-2017
<rdf:RDF>
  <cc:Work
     rdf:about="">
    <dc:format>image/svg+xml</dc:format>
    <dc:type
       rdf:resource="http://purl.org/dc/dcmitype/StillImage" />
    <dc:title />
  </cc:Work>
</rdf:RDF>
</metadata>
  <g
     id="g4804"
     transform="translate(-1.0395829,-1.1102204)">
    <g
       transform="matrix(0.1,0,0,-0.1,0,256)"
       id="g8"
       style="fill:#000000;stroke:none">
      <path
         d="m 1205,2536 c -16,-8 -86,-71 -155,-140 l -125,-126 148,-148 148,-149 53,5 c 116,9 201,-77 194,-199 l -3,-59 134,-134 135,-135 h 60 c 34,1 73,-3 87,-9 147,-58 157,-273 17,-341 -141,-68 -303,55 -268,204 l 9,40 -134,135 -135,135 V 1262 909 l 36,-31 c 54,-48 67,-81 62,-159 l -5,-67 133,-133 134,-134 396,395 c 222,221 402,409 410,427 20,45 17,107 -5,151 -24,46 -1134,1154 -1178,1176 -39,19 -107,20 -148,2 z"
         id="path4"
         style="fill:#f1502f"
         inkscape:connector-curvature="0" />
      <path
         d="M 423,1768 C 207,1552 26,1362 20,1347 5,1306 8,1244 26,1207 48,1163 1156,53 1202,29 c 41,-21 101,-25 145,-9 15,6 85,68 156,138 l 127,127 -137,138 -138,137 -42,-6 c -53,-8 -105,9 -150,49 -86,75 -85,199 1,275 20,17 41,32 46,32 6,0 10,134 10,355 0,195 -3,355 -8,355 -4,0 -69,-62 -145,-138 l -138,-138 9,-40 c 14,-64 -4,-120 -53,-169 -117,-117 -315,-37 -315,128 0,112 85,192 196,185 l 54,-3 141,141 140,141 3,74 2,74 -140,143 c -78,78 -143,142 -146,142 -3,0 -181,-177 -397,-392 z"
         id="path6"
         style="fill:#3e2c00"
         inkscape:connector-curvature="0" />
    </g>
    <g
       id="g4786">
      <g
         id="g4763"
         style="fill:#3e2c00;fill-opacity:1">
        <path
           id="path4757"
           style="font-style:normal;font-variant:normal;font-weight:bold;font-stretch:normal;font-size:200px;line-height:1.25;font-family:'Noto Sans CJK KR';-inkscape-font-specification:'Noto Sans CJK KR Bold';letter-spacing:0px;word-spacing:0px;fill:#3e2c00;fill-opacity:1;stroke:none;stroke-width:0.75"
           d="m 371.73771,210.5 c 20.6,0 38,-8 48,-17.8 v -66.8 h -52.6 v 24.2 h 26.2 v 29.2 c -4.2,3.6 -11.4,5.6 -18.4,5.6 -29.2,0 -44,-19.4 -44,-51.6 0,-31.8 17.2,-51.000003 41.8,-51.000003 13.4,0 21.8,5.4 29.2,12.4 l 15.6,-18.8 c -9.6,-9.8 -24.4,-19 -45.8,-19 -39.4,0 -71,28.6 -71,77.400003 0,49.4 30.8,76.2 71,76.2 z"
           inkscape:connector-curvature="0" />
        <path
           id="path4759"
           style="font-style:normal;font-variant:normal;font-weight:bold;font-stretch:normal;font-size:200px;line-height:1.25;font-family:'Noto Sans CJK KR';-inkscape-font-specification:'Noto Sans CJK KR Bold';letter-spacing:0px;word-spacing:0px;fill:#3e2c00;fill-opacity:1;stroke:none;stroke-width:0.75"
           d="m 449.13752,207.7 h 29.4 V 95.699997 h -29.4 z m 14.8,-130.000003 c 10,0 17,-6.4 17,-16.2 0,-9.6 -7,-16 -17,-16 -10.2,0 -17.2,6.4 -17.2,16 0,9.8 7,16.2 17.2,16.2 z"
           inkscape:connector-curvature="0" />
        <path
           id="path4761"
           style="font-style:normal;font-variant:normal;font-weight:bold;font-stretch:normal;font-size:200px;line-height:1.25;font-family:'Noto Sans CJK KR';-inkscape-font-specification:'Noto Sans CJK KR Bold';letter-spacing:0px;word-spacing:0px;fill:#3e2c00;fill-opacity:1;stroke:none;stroke-width:0.75"
           d="m 550.93731,210.5 c 9.8,0 17.6,-2.2 23.6,-4.2 l -4.8,-21.4 c -3,1.2 -7.4,2.4 -11,2.4 -10,0 -15.2,-6 -15.2,-18.8 v -49.6 h 27.6 V 95.699997 h -27.6 v -30.2 h -24.4 l -3.4,30.2 -17.4,1.4 V 118.9 h 15.8 v 49.6 c 0,25 10.2,42 36.8,42 z"
           inkscape:connector-curvature="0" />
      </g>
      <g
         id="g4772"
         style="fill:#f1502f;fill-opacity:1">
        <path
           id="path4763"
           style="font-style:normal;font-variant:normal;font-weight:bold;font-stretch:normal;font-size:200px;line-height:1.25;font-family:'Noto Sans CJK KR';-inkscape-font-specification:'Noto Sans CJK KR Bold';letter-spacing:0px;word-spacing:0px;fill:#f1502f;fill-opacity:1;stroke:none;stroke-width:0.75"
           d="m 641.7368,207.7 h 26.6 v -61.8 c 0,-14 -2.4,-34.6 -3.8,-48.600003 h 0.8 l 11.8,34.800003 23,62.2 h 17 l 22.8,-62.2 12,-34.800003 h 1 c -1.6,14.000003 -3.8,34.600003 -3.8,48.600003 v 61.8 h 27 V 59.499997 h -32.8 L 718.7368,128.9 c -3.2,9.2 -5.8,19 -9,28.4 h -1 c -3,-9.4 -5.8,-19.2 -9,-28.4 l -25.2,-69.400003 h -32.8 z"
           inkscape:connector-curvature="0" />
        <path
           id="path4765"
           style="font-style:normal;font-variant:normal;font-weight:bold;font-stretch:normal;font-size:200px;line-height:1.25;font-family:'Noto Sans CJK KR';-inkscape-font-specification:'Noto Sans CJK KR Bold';letter-spacing:0px;word-spacing:0px;fill:#f1502f;fill-opacity:1;stroke:none;stroke-width:0.75"
           d="m 837.73646,210.5 c 12.8,0 24,-6.4 33.8,-14.8 h 0.8 l 2,12 h 24 v -65.4 c 0,-32.4 -14.6,-49.400003 -43,-49.400003 -17.6,0 -33.6,6.6 -46.8,14.800003 l 10.6,19.4 c 10.4,-6 20.4,-10.6 30.8,-10.6 13.8,0 18.6,8.4 19.2,19.4 -45.2,4.8 -64.6,17.4 -64.6,41.4 0,19 13.2,33.2 33.2,33.2 z m 9.6,-23 c -8.6,0 -14.8,-3.8 -14.8,-12.6 0,-10 9.2,-17.6 36.6,-21 v 22.6 c -7.2,7 -13.4,11 -21.8,11 z"
           inkscape:connector-curvature="0" />
        <path
           id="path4767"
           style="font-style:normal;font-variant:normal;font-weight:bold;font-stretch:normal;font-size:200px;line-height:1.25;font-family:'Noto Sans CJK KR';-inkscape-font-specification:'Noto Sans CJK KR Bold';letter-spacing:0px;word-spacing:0px;fill:#f1502f;fill-opacity:1;stroke:none;stroke-width:0.75"
           d="m 975.93635,210.5 c 12.4,0 25.99995,-4.2 36.79995,-13.6 l -11.8,-19.4 c -6.19995,5.2 -13.79995,9 -21.79995,9 -16,0 -27.8,-13.6 -27.8,-34.8 0,-21 11.6,-34.8 28.8,-34.8 6.2,0 11.4,2.6 17,7.4 l 13.99995,-19 c -8.2,-7.000003 -18.79995,-12.400003 -32.59995,-12.400003 -30.4,0 -57.2,21.600003 -57.2,58.800003 0,37.2 23.6,58.8 54.6,58.8 z"
           inkscape:connector-curvature="0" />
        <path
           id="path4769"
           style="font-style:normal;font-variant:normal;font-weight:bold;font-stretch:normal;font-size:200px;line-height:1.25;font-family:'Noto Sans CJK KR';-inkscape-font-specification:'Noto Sans CJK KR Bold';letter-spacing:0px;word-spacing:0px;fill:#f1502f;fill-opacity:1;stroke:none;stroke-width:0.75"
           d="m 1033.7361,207.7 h 29.4 v -77 c 8.2,-8.2 14,-12.6 23.2,-12.6 11,0 15.8,6 15.8,23.4 v 66.2 h 29.4 v -69.8 c 0,-28.2 -10.4,-45.000003 -34.6,-45.000003 -15.2,0 -26.2,8.000003 -35.2,16.400003 l 1.4,-21.000003 v -40.2 h -29.4 z"
           inkscape:connector-curvature="0" />
        <path
           id="path4771"
           style="font-style:normal;font-variant:normal;font-weight:bold;font-stretch:normal;font-size:200px;line-height:1.25;font-family:'Noto Sans CJK KR';-inkscape-font-specification:'Noto Sans CJK KR Bold';letter-spacing:0px;word-spacing:0px;fill:#f1502f;fill-opacity:1;stroke:none;stroke-width:0.75"
           d="m 1210.5359,210.5 c 13.8,0 28,-4.8 39,-12.4 l -10,-18 c -8,5 -16,7.8 -25.2,7.8 -16.6,0 -28.6,-9.6 -31,-28 h 69 c 0.8,-2.6 1.4,-8 1.4,-13.6 0,-30.8 -16,-53.400003 -46.8,-53.400003 -26.6,0 -52.2,22.600003 -52.2,58.800003 0,37 24.4,58.8 55.8,58.8 z m -27.6,-70.2 c 2.2,-16.2 12.6,-24.6 24.4,-24.6 14.4,0 21.2,9.6 21.2,24.6 z"
           inkscape:connector-curvature="0" />
        <path
           id="path4773"
           style="font-style:normal;font-variant:normal;font-weight:bold;font-stretch:normal;font-size:200px;line-height:1.25;font-family:'Noto Sans CJK KR';-inkscape-font-specification:'Noto Sans CJK KR Bold';letter-spacing:0px;word-spacing:0px;fill:#f1502f;fill-opacity:1;stroke:none;stroke-width:0.75"
           d="m 1316.5356,210.5 c 9.8,0 17.6,-2.2 23.6,-4.2 l -4.8,-21.4 c -3,1.2 -7.4,2.4 -11,2.4 -10,0 -15.2,-6 -15.2,-18.8 v -49.6 h 27.6 V 95.699997 h -27.6 v -30.2 h -24.4 l -3.4,30.2 -17.4,1.4 V 118.9 h 15.8 v 49.6 c 0,25 10.2,42 36.8,42 z"
           inkscape:connector-curvature="0" />
        <path
           id="path4775"
           style="font-style:normal;font-variant:normal;font-weight:bold;font-stretch:normal;font-size:200px;line-height:1.25;font-family:'Noto Sans CJK KR';-inkscape-font-specification:'Noto Sans CJK KR Bold';letter-spacing:0px;word-spacing:0px;fill:#f1502f;fill-opacity:1;stroke:none;stroke-width:0.75"
           d="m 1404.535,210.5 c 13.8,0 28,-4.8 39,-12.4 l -10,-18 c -8,5 -16,7.8 -25.2,7.8 -16.6,0 -28.6,-9.6 -31,-28 h 69 c 0.8,-2.6 1.4,-8 1.4,-13.6 0,-30.8 -16,-53.400003 -46.8,-53.400003 -26.6,0 -52.2,22.600003 -52.2,58.800003 0,37 24.4,58.8 55.8,58.8 z m -27.6,-70.2 c 2.2,-16.2 12.6,-24.6 24.4,-24.6 14.4,0 21.2,9.6 21.2,24.6 z"
           inkscape:connector-curvature="0" />
      </g>
    </g>
  </g>
</svg>
